<?xml version="1.0" encoding="UTF-8" standalone="no"?>
<!DOCTYPE svg PUBLIC "-//W3C//DTD SVG 1.1//EN"
 "http://www.w3.org/Graphics/SVG/1.1/DTD/svg11.dtd">
<!-- Generated by graphviz version 2.44.1 (20200629.0846)
 -->
<!-- Pages: 1 -->
<svg width="611pt" height="113pt"
 viewBox="0.00 0.00 610.50 112.91" xmlns="http://www.w3.org/2000/svg" xmlns:xlink="http://www.w3.org/1999/xlink">
<g id="graph0" class="graph" transform="scale(1 1) rotate(0) translate(4 108.91)">
<polygon fill="white" stroke="transparent" points="-4,4 -4,-108.91 606.5,-108.91 606.5,4 -4,4"/>
<!-- Distance to Next Obstacle -->
<g id="node1" class="node">
<title>Distance to Next Obstacle</title>
<polygon fill="lightgray" stroke="black" points="192,-104.91 83,-104.91 83,-86.91 192,-86.91 192,-104.91"/>
<text text-anchor="middle" x="137.5" y="-93.71" font-family="Times,serif" font-size="9.00">Distance to Next Obstacle</text>
</g>
<!-- Jump -->
<g id="node8" class="node">
<title>Jump</title>
<ellipse fill="lightblue" stroke="black" cx="265.5" cy="-25.46" rx="25.41" ry="25.41"/>
<text text-anchor="middle" x="265.5" y="-23.26" font-family="Times,serif" font-size="9.00">Jump</text>
</g>
<!-- Distance to Next Obstacle&#45;&gt;Jump -->
<g id="edge1" class="edge">
<title>Distance to Next Obstacle&#45;&gt;Jump</title>
<path fill="none" stroke="green" stroke-width="0.45" d="M152.69,-86.79C172.62,-76.13 208.11,-57.15 233.98,-43.31"/>
<polygon fill="green" stroke="green" stroke-width="0.45" points="235.86,-46.28 243.02,-38.48 232.55,-40.11 235.86,-46.28"/>
</g>
<!-- Duck -->
<g id="node9" class="node">
<title>Duck</title>
<ellipse fill="lightblue" stroke="black" cx="334.5" cy="-25.46" rx="25.41" ry="25.41"/>
<text text-anchor="middle" x="334.5" y="-23.26" font-family="Times,serif" font-size="9.00">Duck</text>
</g>
<!-- Distance to Next Obstacle&#45;&gt;Duck -->
<g id="edge2" class="edge">
<title>Distance to Next Obstacle&#45;&gt;Duck</title>
<path fill="none" stroke="red" stroke-width="0.37" stroke-dasharray="1,5" d="M183.32,-86.87C216.59,-79.98 262.15,-68.39 299.5,-50.91 301.79,-49.84 304.09,-48.62 306.36,-47.31"/>
<polygon fill="red" stroke="red" stroke-width="0.37" points="308.28,-50.24 314.86,-41.93 304.54,-44.32 308.28,-50.24"/>
</g>
<!-- Speed -->
<g id="node2" class="node">
<title>Speed</title>
<polygon fill="lightgray" stroke="black" points="248.5,-104.91 210.5,-104.91 210.5,-86.91 248.5,-86.91 248.5,-104.91"/>
<text text-anchor="middle" x="229.5" y="-93.71" font-family="Times,serif" font-size="9.00">Speed</text>
</g>
<!-- Speed&#45;&gt;Jump -->
<g id="edge3" class="edge">
<title>Speed&#45;&gt;Jump</title>
<path fill="none" stroke="green" stroke-width="0.31" d="M233.77,-86.79C237.64,-79.43 243.6,-68.11 249.31,-57.25"/>
<polygon fill="green" stroke="green" stroke-width="0.31" points="252.44,-58.81 254,-48.33 246.24,-55.55 252.44,-58.81"/>
</g>
<!-- Speed&#45;&gt;Duck -->
<g id="edge4" class="edge">
<title>Speed&#45;&gt;Duck</title>
<path fill="none" stroke="green" stroke-width="0.31" d="M242.78,-86.83C256.95,-78.14 280,-63.84 299.5,-50.91 301.41,-49.65 303.36,-48.33 305.33,-47"/>
<polygon fill="green" stroke="green" stroke-width="0.31" points="307.63,-49.66 313.89,-41.11 303.66,-43.89 307.63,-49.66"/>
</g>
<!-- Height of Bird -->
<g id="node3" class="node">
<title>Height of Bird</title>
<polygon fill="lightgray" stroke="black" points="334.5,-104.91 266.5,-104.91 266.5,-86.91 334.5,-86.91 334.5,-104.91"/>
<text text-anchor="middle" x="300.5" y="-93.71" font-family="Times,serif" font-size="9.00">Height of Bird</text>
</g>
<!-- Height of Bird&#45;&gt;Jump -->
<g id="edge5" class="edge">
<title>Height of Bird&#45;&gt;Jump</title>
<path fill="none" stroke="red" stroke-width="0.16" d="M296.35,-86.79C292.58,-79.43 286.79,-68.11 281.24,-57.25"/>
<polygon fill="red" stroke="red" stroke-width="0.16" points="284.35,-55.64 276.68,-48.33 278.12,-58.83 284.35,-55.64"/>
</g>
<!-- Height of Bird&#45;&gt;Duck -->
<g id="edge6" class="edge">
<title>Height of Bird&#45;&gt;Duck</title>
<path fill="none" stroke="green" stroke-width="0.32" d="M304.53,-86.79C308.13,-79.56 313.62,-68.5 318.92,-57.82"/>
<polygon fill="green" stroke="green" stroke-width="0.32" points="322.17,-59.14 323.49,-48.63 315.9,-56.03 322.17,-59.14"/>
</g>
<!-- Obstacle Type -->
<g id="node4" class="node">
<title>Obstacle Type</title>
<polygon fill="lightgray" stroke="black" points="420.5,-104.91 352.5,-104.91 352.5,-86.91 420.5,-86.91 420.5,-104.91"/>
<text text-anchor="middle" x="386.5" y="-93.71" font-family="Times,serif" font-size="9.00">Obstacle Type</text>
</g>
<!-- Obstacle Type&#45;&gt;Jump -->
<g id="edge7" class="edge">
<title>Obstacle Type&#45;&gt;Jump</title>
<path fill="none" stroke="green" stroke-width="0.11" d="M368.99,-86.82C351.34,-78.47 323.5,-64.74 300.5,-50.91 298.33,-49.61 296.12,-48.22 293.91,-46.79"/>
<polygon fill="green" stroke="green" stroke-width="0.11" points="295.8,-43.83 285.55,-41.16 291.89,-49.65 295.8,-43.83"/>
</g>
<!-- Obstacle Type&#45;&gt;Duck -->
<g id="edge8" class="edge">
<title>Obstacle Type&#45;&gt;Duck</title>
<path fill="none" stroke="green" stroke-width="0.31" d="M380.33,-86.79C374.27,-78.81 364.67,-66.17 355.81,-54.52"/>
<polygon fill="green" stroke="green" stroke-width="0.31" points="358.4,-52.13 349.56,-46.28 352.82,-56.37 358.4,-52.13"/>
</g>
<!-- Obstacle Width -->
<g id="node5" class="node">
<title>Obstacle Width</title>
<polygon fill="lightgray" stroke="black" points="510,-104.91 439,-104.91 439,-86.91 510,-86.91 510,-104.91"/>
<text text-anchor="middle" x="474.5" y="-93.71" font-family="Times,serif" font-size="9.00">Obstacle Width</text>
</g>
<!-- Obstacle Width&#45;&gt;Jump -->
<g id="edge9" class="edge">
<title>Obstacle Width&#45;&gt;Jump</title>
<path fill="none" stroke="red" stroke-width="0.52" d="M438.84,-87.49C395.45,-78.18 324.94,-62.09 300.5,-50.91 298.2,-49.86 295.89,-48.65 293.62,-47.35"/>
<polygon fill="red" stroke="red" stroke-width="0.52" points="295.43,-44.36 285.11,-42 291.7,-50.29 295.43,-44.36"/>
</g>
<!-- Obstacle Width&#45;&gt;Duck -->
<g id="edge10" class="edge">
<title>Obstacle Width&#45;&gt;Duck</title>
<path fill="none" stroke="red" stroke-width="0.28" d="M457.89,-86.79C435.37,-75.78 394.71,-55.9 366.24,-41.98"/>
<polygon fill="red" stroke="red" stroke-width="0.28" points="367.62,-38.75 357.1,-37.51 364.54,-45.04 367.62,-38.75"/>
</g>
<!-- Obstacle Height -->
<g id="node6" class="node">
<title>Obstacle Height</title>
<polygon fill="lightgray" stroke="black" points="602.5,-104.91 528.5,-104.91 528.5,-86.91 602.5,-86.91 602.5,-104.91"/>
<text text-anchor="middle" x="565.5" y="-93.71" font-family="Times,serif" font-size="9.00">Obstacle Height</text>
</g>
<!-- Obstacle Height&#45;&gt;Jump -->
<g id="edge11" class="edge">
<title>Obstacle Height&#45;&gt;Jump</title>
<path fill="none" stroke="red" stroke-width="0.29" d="M528.35,-88.42C525.36,-87.91 522.38,-87.4 519.5,-86.91 422.24,-70.46 391.87,-88.08 300.5,-50.91 298.16,-49.96 295.82,-48.82 293.52,-47.58"/>
<polygon fill="red" stroke="red" stroke-width="0.29" points="295.32,-44.57 284.96,-42.32 291.66,-50.54 295.32,-44.57"/>
</g>
<!-- Obstacle Height&#45;&gt;Duck -->
<g id="edge12" class="edge">
<title>Obstacle Height&#45;&gt;Duck</title>
<path fill="none" stroke="red" stroke-width="0.11" d="M538.09,-86.79C495.76,-74.25 414.56,-50.18 368.53,-36.54"/>
<polygon fill="red" stroke="red" stroke-width="0.11" points="369.3,-33.12 358.72,-33.63 367.31,-39.83 369.3,-33.12"/>
</g>
<!-- Player Height -->
<g id="node7" class="node">
<title>Player Height</title>
<polygon fill="lightgray" stroke="black" points="65,-104.91 0,-104.91 0,-86.91 65,-86.91 65,-104.91"/>
<text text-anchor="middle" x="32.5" y="-93.71" font-family="Times,serif" font-size="9.00">Player Height</text>
</g>
<!-- Player Height&#45;&gt;Jump -->
<g id="edge13" class="edge">
<title>Player Height&#45;&gt;Jump</title>
<path fill="none" stroke="green" stroke-width="0.6" d="M60.14,-86.79C102.93,-74.22 185.09,-50.08 231.47,-36.45"/>
<polygon fill="green" stroke="green" stroke-width="0.6" points="232.46,-39.81 241.07,-33.63 230.49,-33.09 232.46,-39.81"/>
</g>
<!-- Player Height&#45;&gt;Duck -->
<g id="edge14" class="edge">
<title>Player Height&#45;&gt;Duck</title>
<path fill="none" stroke="red" stroke-width="0.26" d="M65.15,-88.43C67.97,-87.91 70.79,-87.39 73.5,-86.91 173.65,-69.17 205.19,-89.01 299.5,-50.91 301.85,-49.96 304.19,-48.83 306.49,-47.59"/>
<polygon fill="red" stroke="red" stroke-width="0.26" points="308.35,-50.55 315.04,-42.34 304.69,-44.59 308.35,-50.55"/>
</g>
</g>
</svg>
